<svg id="Camada_1" data-name="Camada 1" xmlns="http://www.w3.org/2000/svg" xmlns:xlink="http://www.w3.org/1999/xlink" viewBox="0 0 32 32"><defs><style>.cls-1{fill:url(#Água_10);}</style><linearGradient id="Água_10" x1="1" y1="16" x2="31" y2="16" gradientUnits="userSpaceOnUse"><stop offset="0" stop-color="#5a86b6"/><stop offset="0.11" stop-color="#5182b3"/><stop offset="0.29" stop-color="#3778ac"/><stop offset="0.51" stop-color="#0e689f"/><stop offset="0.58" stop-color="#00629b"/><stop offset="1" stop-color="#004b88"/></linearGradient></defs><title>cine-stream</title><path class="cls-1" d="M6,10.29a7.31,7.31,0,0,1,.23-1.87A4.79,4.79,0,0,1,6.94,7,3.16,3.16,0,0,1,8,6a2.8,2.8,0,0,1,1.34-.37A3,3,0,0,1,11.75,7l-.5.6-.58.81a1.84,1.84,0,0,0-1.05-.72A1.16,1.16,0,0,0,8.75,8,1.78,1.78,0,0,0,8,8.81a3.5,3.5,0,0,0-.27,1.48A3.53,3.53,0,0,0,8,11.77a1.88,1.88,0,0,0,.72.84,1.59,1.59,0,0,0,1,.21c.37,0,.58-.29,1-.54l.52.76.46.7A3.41,3.41,0,0,1,9.31,15,2.92,2.92,0,0,1,8,14.59a3.16,3.16,0,0,1-1-1,5,5,0,0,1-.67-1.47A7.18,7.18,0,0,1,6,10.29ZM12.4,15V6h1.66v9H12.4Zm2.94,0V6H17c.34.84.68,1.69,1,2.54l1,2.55V6h1.66v9H19.07l-1-2.55L17,9.87V15H15.34ZM22,15V6h4.59V8H23.64V9.31h1.87c0,.33,0,.66,0,1s0,.69,0,1H23.64v1.6h2.93v2H22ZM5.52,23.56a3.22,3.22,0,0,1-.38,1.65,2.19,2.19,0,0,1-1,.91,3.27,3.27,0,0,1-1.42.24A4.89,4.89,0,0,1,1.1,26V23.74a4.75,4.75,0,0,0,1.36.46,1.79,1.79,0,0,0,1-.07.62.62,0,0,0,.16-1,2.12,2.12,0,0,0-.52-.33l-.68-.34A3.43,3.43,0,0,1,1.72,22a2.31,2.31,0,0,1-.52-.79A3.22,3.22,0,0,1,1,20a3.15,3.15,0,0,1,.35-1.53,2.28,2.28,0,0,1,.93-.94,2.68,2.68,0,0,1,1.34-.32,4,4,0,0,1,1.56.32v2.28A3.42,3.42,0,0,0,4,19.28a1.52,1.52,0,0,0-.9.08.56.56,0,0,0-.33.54.52.52,0,0,0,.2.43,2.11,2.11,0,0,0,.52.32,7,7,0,0,1,.68.33,3.43,3.43,0,0,1,.67.5,2.38,2.38,0,0,1,.53.81A3.56,3.56,0,0,1,5.52,23.56Zm2,2.82v-6.9H6.08V17.36h4.59v2.12H9.21v6.9H7.55Zm5.25-6.71a.64.64,0,0,0-.55-.28h-.62v1.95h.72a.52.52,0,0,0,.46-.28,1.27,1.27,0,0,0,.18-.69A1.2,1.2,0,0,0,12.8,19.67Zm.09,5.21c-.2-.51-.4-1-.61-1.5h-.65v3h1.85Zm6.34-5.49v-2H12.31a2.22,2.22,0,0,1,1.26.37,2.49,2.49,0,0,1,.84,1.06,3.84,3.84,0,0,1,.3,1.58,3.7,3.7,0,0,1-.23,1.38,2.6,2.6,0,0,1-.61,1c.25.59.51,1.19.76,1.79s.51,1.19.77,1.78h3.83v-2H16.36v-1.5h1.85c0-.34,0-.69,0-1s0-.68,0-1H16.36V19.39Zm2.66,1.7c-.12-.53-.23-1.06-.34-1.58-.11.52-.22,1-.34,1.58s-.23,1.06-.34,1.58h1.35Zm.73,3.61H20.47l-.18.84q-.09.43-.18.84H23q-.09-.4-.18-.84ZM31,26.38c0-1.48,0-3,0-4.51s0-3,0-4.51H29s-1.49,5.07-1.49,5.17c0-.07-1.29-4.28-1.48-5.17H22.7c.33,1.49.66,3,1,4.51s.67,3,1,4.51h.92v-6l1.87,4.9,1.89-5v6.11Z"/></svg>